HIERARCHY
ROOT Junyuan_V1:Solving:Hips
{
	OFFSET 0.000000 0.000000 0.000000
	CHANNELS 6 Xposition Yposition Zposition Xrotation Yrotation Zrotation
	JOINT Junyuan_V1:Solving:Spine
	{
		OFFSET 0.000000 -12.985630 2.462989
		CHANNELS 6 Xposition Yposition Zposition Xrotation Yrotation Zrotation
		JOINT Junyuan_V1:Solving:Spine1
		{
			OFFSET 0.000000 -8.692390 1.532706
			CHANNELS 6 Xposition Yposition Zposition Xrotation Yrotation Zrotation
			JOINT Junyuan_V1:Solving:Spine2
			{
				OFFSET 0.000000 -8.792902 0.769282
				CHANNELS 6 Xposition Yposition Zposition Xrotation Yrotation Zrotation
				JOINT Junyuan_V1:Solving:Spine3
				{
					OFFSET 0.000000 -8.826483 0.000000
					CHANNELS 6 Xposition Yposition Zposition Xrotation Yrotation Zrotation
					JOINT Junyuan_V1:Solving:Neck
					{
						OFFSET 0.000000 -11.348343 -1.134832
						CHANNELS 6 Xposition Yposition Zposition Xrotation Yrotation Zrotation
						JOINT Junyuan_V1:Solving:Neck1
						{
							OFFSET 0.000000 -7.624485 -0.667056
							CHANNELS 6 Xposition Yposition Zposition Xrotation Yrotation Zrotation
							JOINT Junyuan_V1:Solving:Head
							{
								OFFSET 0.000000 -7.537346 -1.329035
								CHANNELS 6 Xposition Yposition Zposition Xrotation Yrotation Zrotation
								JOINT Junyuan_V1:Solving:HeadEnd
								{
									OFFSET 0.000000 -9.728073 0.000003
									CHANNELS 6 Xposition Yposition Zposition Xrotation Yrotation Zrotation
									End Site
									{
										OFFSET 0.000000 -9.728081 0.000002
									}
								}
							}
						}
					}
					JOINT Junyuan_V1:Solving:RightShoulder
					{
						OFFSET 0.000000 -8.105961 -5.517343
						CHANNELS 6 Xposition Yposition Zposition Xrotation Yrotation Zrotation
						JOINT Junyuan_V1:Solving:RightArm
						{
							OFFSET -18.898018 -0.000008 0.000000
							CHANNELS 6 Xposition Yposition Zposition Xrotation Yrotation Zrotation
							JOINT Junyuan_V1:Solving:RightForeArm
							{
								OFFSET -28.740982 -0.000008 0.000000
								CHANNELS 6 Xposition Yposition Zposition Xrotation Yrotation Zrotation
								JOINT Junyuan_V1:Solving:RightHand
								{
									OFFSET -20.953522 -0.000008 0.000000
									CHANNELS 6 Xposition Yposition Zposition Xrotation Yrotation Zrotation
									JOINT Junyuan_V1:Solving:RightHandThumb1
									{
										OFFSET -4.628059 2.916191 -3.441377
										CHANNELS 6 Xposition Yposition Zposition Xrotation Yrotation Zrotation
										End Site
										{
											OFFSET -6.617699 -0.000004 -6.678891
										}
									}
									JOINT Junyuan_V1:Solving:RightHandMiddle1
									{
										OFFSET -12.341492 -0.000004 0.079112
										CHANNELS 6 Xposition Yposition Zposition Xrotation Yrotation Zrotation
										End Site
										{
											OFFSET -9.402214 -0.000004 0.000000
										}
									}
								}
							}
						}
					}
					JOINT Junyuan_V1:Solving:LeftShoulder
					{
						OFFSET 0.000000 -8.105961 -5.517343
						CHANNELS 6 Xposition Yposition Zposition Xrotation Yrotation Zrotation
						JOINT Junyuan_V1:Solving:LeftArm
						{
							OFFSET 18.898018 -0.000008 0.000000
							CHANNELS 6 Xposition Yposition Zposition Xrotation Yrotation Zrotation
							JOINT Junyuan_V1:Solving:LeftForeArm
							{
								OFFSET 28.740982 -0.000008 0.000000
								CHANNELS 6 Xposition Yposition Zposition Xrotation Yrotation Zrotation
								JOINT Junyuan_V1:Solving:LeftHand
								{
									OFFSET 20.953522 -0.000008 0.000000
									CHANNELS 6 Xposition Yposition Zposition Xrotation Yrotation Zrotation
									JOINT Junyuan_V1:Solving:LeftHandThumb1
									{
										OFFSET 4.628059 2.916191 -3.441377
										CHANNELS 6 Xposition Yposition Zposition Xrotation Yrotation Zrotation
										End Site
										{
											OFFSET 6.617699 -0.000004 -6.678891
										}
									}
									JOINT Junyuan_V1:Solving:LeftHandMiddle1
									{
										OFFSET 12.341492 -0.000004 0.079112
										CHANNELS 6 Xposition Yposition Zposition Xrotation Yrotation Zrotation
										End Site
										{
											OFFSET 9.402214 -0.000004 0.000000
										}
									}
								}
							}
						}
					}
				}
			}
		}
	}
	JOINT Junyuan_V1:Solving:RightUpLeg
	{
		OFFSET -11.141669 0.000000 0.000000
		CHANNELS 6 Xposition Yposition Zposition Xrotation Yrotation Zrotation
		JOINT Junyuan_V1:Solving:RightLeg
		{
			OFFSET 0.000000 42.399242 -0.000006
			CHANNELS 6 Xposition Yposition Zposition Xrotation Yrotation Zrotation
			JOINT Junyuan_V1:Solving:RightFoot
			{
				OFFSET 0.000000 39.245022 -0.000006
				CHANNELS 6 Xposition Yposition Zposition Xrotation Yrotation Zrotation
				JOINT Junyuan_V1:Solving:RightForeFoot
				{
					OFFSET 0.000000 3.261009 -0.000000
					CHANNELS 6 Xposition Yposition Zposition Xrotation Yrotation Zrotation
					JOINT Junyuan_V1:Solving:RightToeBase
					{
						OFFSET 0.000000 0.000000 -12.771147
						CHANNELS 6 Xposition Yposition Zposition Xrotation Yrotation Zrotation
						JOINT Junyuan_V1:Solving:RightToeBaseEnd
						{
							OFFSET 0.000000 0.000000 -4.049008
							CHANNELS 6 Xposition Yposition Zposition Xrotation Yrotation Zrotation
							End Site
							{
								OFFSET 0.000000 -4.049011 0.000000
							}
						}
					}
				}
			}
		}
	}
	JOINT Junyuan_V1:Solving:LeftUpLeg
	{
		OFFSET 11.141669 0.000000 0.000000
		CHANNELS 6 Xposition Yposition Zposition Xrotation Yrotation Zrotation
		JOINT Junyuan_V1:Solving:LeftLeg
		{
			OFFSET 0.000000 42.399242 -0.000006
			CHANNELS 6 Xposition Yposition Zposition Xrotation Yrotation Zrotation
			JOINT Junyuan_V1:Solving:LeftFoot
			{
				OFFSET 0.000000 39.245022 -0.000006
				CHANNELS 6 Xposition Yposition Zposition Xrotation Yrotation Zrotation
				JOINT Junyuan_V1:Solving:LeftForeFoot
				{
					OFFSET 0.000000 3.261009 -0.000000
					CHANNELS 6 Xposition Yposition Zposition Xrotation Yrotation Zrotation
					JOINT Junyuan_V1:Solving:LeftToeBase
					{
						OFFSET 0.000000 0.000000 -12.771147
						CHANNELS 6 Xposition Yposition Zposition Xrotation Yrotation Zrotation
						JOINT Junyuan_V1:Solving:LeftToeBaseEnd
						{
							OFFSET 0.000000 0.000000 -2.960146
							CHANNELS 6 Xposition Yposition Zposition Xrotation Yrotation Zrotation
							End Site
							{
								OFFSET 0.000000 -2.960144 0.000002
							}
						}
					}
				}
			}
		}
	}
}
MOTION
Frames: 4
Frame Time: 0.041667
1.406310 30.378166 -89.818832 85.950062 -176.647202 1.649340 0.000001 -12.985618 2.462987 10.068749 -0.023349 2.368112 0.000001 -8.692379 1.532700 -0.680628 -0.243887 0.653522 0.000001 -8.792916 0.769294 -4.213214 -0.738685 0.025146 -0.000002 -8.826491 -0.000002 -0.874654 -0.065749 -1.663903 -0.000000 -11.348340 -1.134844 -1.459930 1.110238 1.723314 0.000002 -7.624496 -0.667065 2.800827 2.690960 -0.811371 -0.000001 -7.537340 -1.329048 10.941863 0.321894 -1.579980 0.000001 -9.728081 0.000015 0.000001 -0.000000 -0.000000 -0.000001 -8.105934 -5.517355 -0.000006 14.722010 14.569617 -18.898016 -0.000011 0.000000 -4.496492 -30.273526 -93.922676 -28.740973 -0.000001 0.000001 0.408367 -20.965411 0.146118 -20.953497 -0.000013 -0.000001 -0.294368 -2.219084 -7.558287 -4.628079 2.916206 -3.441376 -0.000002 -0.000002 0.000003 -12.341506 -0.000002 0.079110 0.000000 -0.000001 0.000001 0.000001 -8.105938 -5.517355 -0.000002 -11.800137 -14.361231 18.898010 -0.000020 0.000009 -5.544793 34.926743 95.397921 28.741013 -0.000003 -0.000001 -8.143581 15.329794 2.166540 20.953506 -0.000011 0.000003 0.417337 3.600931 -6.615362 4.628049 2.916197 -3.441367 -0.000005 -0.000003 -0.000003 12.341468 -0.000004 0.079117 -0.000004 -0.000000 -0.000001 -11.141667 0.000012 0.000003 -7.493933 3.949910 3.213013 -0.000001 42.399246 -0.000006 10.682528 0.000002 -0.000002 -0.000002 39.245037 -0.000000 -2.719112 -7.430915 -9.478189 0.000004 3.261009 0.000003 -0.000000 0.000000 0.000001 -0.000000 0.000001 -12.771154 10.492847 0.000002 0.000001 0.000001 0.000001 -4.049012 0.000004 -0.000000 -0.000000 11.141668 -0.000004 -0.000004 -5.899682 -14.388331 1.254884 0.000001 42.399242 -0.000005 4.503408 -0.000001 -0.000000 -0.000000 39.245029 -0.000008 -0.849843 -7.990649 -19.872143 0.000002 3.261010 0.000001 0.000002 0.000003 0.000005 -0.000000 -0.000014 -12.771146 1.752792 -0.000004 -0.000002 -0.000001 0.000001 -2.960143 0.000002 -0.000005 0.000000 
1.325015 30.459311 -89.820816 85.878502 -176.484165 1.656138 0.000000 -12.985643 2.462992 10.117323 -0.016394 2.418024 -0.000001 -8.692384 1.532707 -0.668453 -0.244541 0.654609 -0.000003 -8.792894 0.769273 -4.199513 -0.730291 0.030717 -0.000001 -8.826483 0.000003 -0.882701 -0.060941 -1.671213 -0.000001 -11.348333 -1.134832 -1.472375 1.087812 1.712179 0.000001 -7.624469 -0.667059 2.813804 2.635532 -0.809482 -0.000001 -7.537366 -1.329028 10.956692 0.316801 -1.585525 0.000001 -9.728088 -0.000002 -0.000000 -0.000000 -0.000000 -0.000000 -8.105965 -5.517344 -0.000009 14.607471 14.375740 -18.898026 -0.000016 -0.000005 -4.550082 -31.024266 -94.373769 -28.740995 -0.000000 0.000003 -0.709539 -21.598245 -0.261186 -20.953543 0.000012 0.000000 -0.302304 -1.892884 -9.075599 -4.628065 2.916200 -3.441369 0.000002 0.000005 0.000003 -12.341484 -0.000002 0.079120 -0.000003 -0.000001 0.000000 0.000002 -8.105965 -5.517345 -0.000004 -11.634203 -14.166322 18.898008 -0.000004 -0.000005 -5.561828 36.040914 95.802549 28.740992 0.000001 -0.000001 -8.853772 16.426982 2.522278 20.953505 0.000004 0.000003 0.340631 3.406029 -5.714478 4.628074 2.916204 -3.441364 -0.000002 0.000003 -0.000001 12.341475 0.000003 0.079115 0.000001 0.000001 -0.000001 -11.141666 -0.000038 0.000003 -7.747725 3.952700 3.254957 0.000001 42.399261 -0.000007 10.860272 -0.000001 -0.000000 0.000001 39.245003 -0.000009 -2.682548 -7.567663 -9.434110 0.000002 3.261002 -0.000008 0.000000 0.000000 0.000000 -0.000004 -0.000001 -12.771158 10.544329 0.000002 0.000001 0.000002 -0.000007 -4.049010 0.000001 -0.000000 -0.000001 11.141668 -0.000019 0.000002 -5.973914 -14.338575 1.291321 0.000002 42.399246 -0.000014 4.432401 -0.000000 -0.000000 -0.000004 39.245010 -0.000003 -0.801702 -8.177312 -19.868033 0.000001 3.261017 0.000004 0.000001 -0.000001 0.000005 0.000002 0.000013 -12.771150 1.669219 0.000007 0.000002 -0.000001 0.000000 -2.960142 0.000003 -0.000005 -0.000001 
1.230012 30.538137 -89.820152 85.805474 -176.329748 1.631291 -0.000000 -12.985641 2.462987 10.158434 -0.007338 2.492593 0.000001 -8.692407 1.532710 -0.660154 -0.242634 0.657352 0.000000 -8.792910 0.769282 -4.186004 -0.698608 0.032273 -0.000001 -8.826509 -0.000005 -0.879897 -0.051548 -1.653144 0.000001 -11.348345 -1.134831 -1.484422 1.076301 1.752328 0.000000 -7.624466 -0.667048 2.818221 2.626250 -0.833640 0.000001 -7.537323 -1.329036 10.976416 0.321680 -1.630619 0.000003 -9.728088 0.000023 -0.000000 0.000000 -0.000000 0.000001 -8.105968 -5.517344 -0.000009 14.459362 14.171184 -18.898016 -0.000025 -0.000004 -4.638247 -31.775737 -94.743521 -28.740982 -0.000012 0.000008 -1.658273 -22.205092 -0.626849 -20.953520 -0.000003 -0.000001 -0.251751 -1.385981 -10.295967 -4.628050 2.916200 -3.441375 0.000000 -0.000000 0.000002 -12.341461 -0.000001 0.079109 0.000003 0.000001 -0.000000 0.000003 -8.105968 -5.517344 -0.000004 -11.454585 -14.028711 18.898005 -0.000002 0.000009 -5.636973 36.721617 96.278756 28.741003 -0.000004 0.000006 -9.042581 17.433684 2.729828 20.953514 0.000000 0.000003 0.264248 3.183243 -4.747797 4.628045 2.916205 -3.441373 -0.000003 0.000007 0.000001 12.341467 0.000006 0.079109 0.000000 0.000003 -0.000002 -11.141665 0.000013 -0.000003 -8.034676 4.078230 3.353414 -0.000002 42.399258 -0.000010 11.080813 -0.000000 -0.000001 -0.000004 39.245014 -0.000007 -2.667816 -7.841752 -9.429959 -0.000002 3.261009 0.000003 -0.000000 -0.000000 -0.000001 0.000001 0.000004 -12.771144 10.504732 0.000002 -0.000001 0.000003 0.000008 -4.049009 0.000002 -0.000000 -0.000000 11.141665 -0.000012 -0.000003 -6.062618 -14.456819 1.354918 -0.000005 42.399261 -0.000008 4.415055 0.000002 -0.000000 -0.000006 39.245026 0.000002 -0.754093 -8.176168 -19.888934 0.000001 3.261009 -0.000003 0.000001 -0.000002 0.000004 -0.000001 0.000014 -12.771145 1.604061 -0.000003 -0.000002 -0.000002 -0.000007 -2.960141 0.000003 -0.000003 -0.000002 
1.149253 30.613003 -89.823456 85.755450 -176.243770 1.653521 -0.000002 -12.985620 2.462989 10.219653 -0.000494 2.521242 0.000001 -8.692359 1.532702 -0.636120 -0.237075 0.654787 0.000000 -8.792900 0.769279 -4.165587 -0.617975 0.022695 0.000001 -8.826482 -0.000015 -0.894411 -0.034255 -1.653965 -0.000001 -11.348369 -1.134831 -1.481744 1.061994 1.742065 -0.000001 -7.624465 -0.667052 2.822564 2.527949 -0.832153 -0.000000 -7.537299 -1.329030 10.983969 0.311740 -1.605969 0.000001 -9.728088 -0.000010 -0.000000 -0.000001 0.000000 0.000002 -8.105957 -5.517346 -0.000002 14.373749 14.143001 -18.898014 -0.000010 -0.000008 -4.776150 -32.155267 -95.119332 -28.740992 -0.000009 -0.000004 0.065998 -22.888200 0.025669 -20.953527 0.000005 -0.000004 -0.157373 -0.922648 -9.679666 -4.628060 2.916193 -3.441376 -0.000002 0.000003 -0.000000 -12.341463 -0.000004 0.079111 0.000004 0.000002 -0.000002 0.000002 -8.105957 -5.517344 -0.000003 -11.206957 -13.901484 18.898010 -0.000019 0.000007 -5.719260 36.717926 96.807871 28.740988 -0.000010 0.000007 -8.494302 18.260652 2.679328 20.953514 0.000000 0.000002 0.185318 3.082016 -3.442707 4.628067 2.916203 -3.441367 0.000004 -0.000005 -0.000001 12.341484 0.000005 0.079115 0.000006 0.000001 -0.000000 -11.141670 -0.000009 0.000004 -8.264660 4.234278 3.413021 0.000004 42.399265 -0.000011 11.270135 -0.000000 -0.000001 -0.000005 39.245026 -0.000015 -2.609523 -8.144366 -9.460376 0.000006 3.261009 0.000001 0.000000 -0.000000 -0.000001 -0.000000 0.000002 -12.771150 10.420803 0.000002 -0.000001 -0.000006 -0.000001 -4.049013 -0.000002 -0.000000 0.000000 11.141666 0.000010 -0.000001 -6.099564 -14.081535 1.395668 -0.000001 42.399242 -0.000007 4.284869 -0.000000 0.000000 -0.000003 39.245018 -0.000007 -0.654251 -8.573402 -19.870789 0.000003 3.261002 0.000001 0.000001 -0.000000 0.000005 -0.000003 0.000002 -12.771152 1.589523 0.000000 0.000001 -0.000001 0.000000 -2.960146 -0.000001 -0.000001 0.000002 
